<svg version="1.0" xmlns="http://www.w3.org/2000/svg"
 width="70.000000pt" height="70.000000pt" viewBox="0 0 70.000000 70.000000"
 preserveAspectRatio="xMidYMid meet">

<g transform="translate(0.000000,70.000000) scale(0.100000,-0.100000)"
fill="#000000" stroke="none">
<path d="M238 665 c-94 -34 -172 -116 -205 -211 -22 -66 -15 -185 17 -249 55
-113 156 -178 285 -183 109 -5 177 21 250 93 130 130 130 340 0 470 -68 68
-137 95 -238 94 -40 0 -89 -7 -109 -14z m174 -6 c150 -31 251 -155 251 -309 0
-126 -66 -231 -180 -287 -80 -38 -187 -38 -266 1 -187 91 -240 337 -106 490
49 56 90 81 160 100 67 18 76 19 141 5z"/>
<path d="M244 535 c-21 -33 -14 -113 12 -132 28 -21 57 14 57 69 0 79 -36 113
-69 63z"/>
<path d="M394 523 c-25 -58 2 -142 40 -127 22 8 39 61 33 100 -12 71 -49 85
-73 27z"/>
<path d="M135 370 c-3 -6 -3 -16 1 -22 5 -7 10 -30 12 -52 19 -202 286 -255
376 -75 14 29 26 70 26 90 0 21 5 39 12 41 6 2 8 10 4 16 -5 9 -14 8 -37 -3
-28 -15 -39 -35 -19 -35 17 0 11 -59 -10 -100 -53 -103 -198 -123 -277 -38
-44 46 -69 138 -38 138 25 0 17 18 -14 35 -19 9 -32 11 -36 5z"/>
</g>
</svg>
